<svg width="101" height="36" viewBox="0 0 101 36" fill="none" xmlns="http://www.w3.org/2000/svg">
<path d="M24.7071 8.16155V0.7854H0V35.2115H7.41499V22.9179H22.2368V15.5418H7.41499V8.16155H24.7071Z" fill="#1F323F"/>
<path d="M34.4285 0.7854H27.0176V35.2115H34.4285V0.7854Z" fill="#1F323F"/>
<path d="M62.2119 25.4173C60.7116 26.8325 58.8281 27.7799 56.7935 28.1428C54.7589 28.5057 52.6621 28.2683 50.7614 27.4598C48.8607 26.6514 47.2391 25.3071 46.0965 23.5927C44.9538 21.8783 44.34 19.8687 44.3307 17.8114C44.3214 15.7541 44.917 13.739 46.044 12.0144C47.1711 10.2898 48.7804 8.93109 50.6737 8.10558C52.567 7.28006 54.6616 7.02385 56.6994 7.3685C58.7372 7.71315 60.6292 8.64362 62.1423 10.0453C63.0208 7.75072 64.2918 5.62487 65.8989 3.76187C63.2563 1.70888 60.0863 0.437902 56.7518 0.0944177C53.4173 -0.249067 50.053 0.348812 47.0439 1.81963C44.0349 3.29045 41.5027 5.57476 39.7372 8.41114C37.9716 11.2475 37.0441 14.5213 37.0608 17.8579C37.0774 21.1945 38.0376 24.459 39.8313 27.2777C41.6251 30.0965 44.1799 32.3557 47.2035 33.7967C50.2271 35.2377 53.5972 35.8022 56.9281 35.4258C60.2591 35.0494 63.4162 33.7471 66.0382 31.6681C64.4127 29.8179 63.1184 27.7035 62.2119 25.4173Z" fill="#1F323F"/>
<path d="M82.1058 0.0187993C78.5746 0.0187994 75.1226 1.06108 72.1866 3.01382C69.2505 4.96655 66.9622 7.74201 65.6111 10.9892C64.2599 14.2364 63.9066 17.8095 64.5958 21.2566C65.285 24.7037 66.9858 27.8699 69.483 30.3549C71.9803 32.8399 75.1618 34.5319 78.6253 35.2171C82.0888 35.9023 85.6786 35.5498 88.9408 34.2043C92.203 32.8587 94.991 30.5805 96.9523 27.6577C98.9136 24.735 99.9599 21.299 99.9591 17.7844C99.9591 15.451 99.4973 13.1405 98.6 10.9848C97.7028 8.82915 96.3876 6.87051 94.7298 5.22078C93.0719 3.57104 91.1037 2.26252 88.9377 1.36996C86.7716 0.477397 84.4501 0.0182638 82.1058 0.0187993ZM82.1058 28.3369C80.0087 28.3377 77.9585 27.7195 76.2144 26.5604C74.4703 25.4014 73.1108 23.7536 72.3077 21.8255C71.5046 19.8973 71.2941 17.7754 71.7027 15.7282C72.1113 13.6809 73.1208 11.8003 74.6033 10.324C76.0859 8.84785 77.975 7.84242 80.0318 7.43492C82.0885 7.02741 84.2205 7.23615 86.158 8.03473C88.0956 8.8333 89.7517 10.1858 90.9168 11.9213C92.082 13.6567 92.7039 15.6971 92.7039 17.7844C92.7039 20.5823 91.5874 23.2658 89.6 25.2447C87.6126 27.2235 84.917 28.3358 82.1058 28.3369Z" fill="#1F323F"/>
<path d="M95.2476 32.8995C95.2469 32.6725 95.2758 32.4463 95.3336 32.2267C95.3888 32.0177 95.47 31.8163 95.5753 31.6273C95.6766 31.4454 95.8005 31.2769 95.944 31.1258C96.0879 30.9779 96.2504 30.8491 96.4274 30.7425C96.7001 30.5803 97.003 30.475 97.3178 30.433C97.6326 30.3909 97.9527 30.413 98.2587 30.4979C98.4572 30.554 98.6473 30.6363 98.824 30.7425C99.0005 30.8481 99.1617 30.977 99.3033 31.1258C99.4494 31.2757 99.5748 31.4444 99.6761 31.6273C99.7815 31.8163 99.8627 32.0177 99.9178 32.2267C100.032 32.6694 100.032 33.1337 99.9178 33.5764C99.8627 33.7854 99.7815 33.9867 99.6761 34.1757C99.5759 34.3606 99.4504 34.5307 99.3033 34.6813C99.1596 34.829 98.9987 34.9591 98.824 35.0687C98.6473 35.1749 98.4572 35.2572 98.2587 35.3134C97.8466 35.433 97.4089 35.433 96.9969 35.3134C96.7968 35.258 96.6052 35.1757 96.4274 35.0687C96.2522 34.9581 96.09 34.8282 95.944 34.6813C95.7994 34.5296 95.6755 34.3596 95.5753 34.1757C95.47 33.9867 95.3888 33.7854 95.3336 33.5764C95.2755 33.3554 95.2466 33.1279 95.2476 32.8995ZM95.6327 32.8995C95.6323 33.1791 95.6866 33.456 95.7924 33.715C95.8857 33.9615 96.0246 34.1883 96.2021 34.3837C96.3826 34.5717 96.5983 34.7227 96.8371 34.8281C97.0816 34.9332 97.3451 34.9873 97.6114 34.9873C97.8777 34.9873 98.1411 34.9332 98.3856 34.8281C98.6224 34.7212 98.8365 34.5703 99.0165 34.3837C99.194 34.1883 99.333 33.9615 99.4262 33.715C99.5321 33.456 99.5863 33.1791 99.586 32.8995C99.5874 32.6198 99.5331 32.3426 99.4262 32.084C99.3329 31.8388 99.1939 31.6133 99.0165 31.4194C98.8377 31.2324 98.6232 31.0827 98.3856 30.979C98.1411 30.874 97.8777 30.8198 97.6114 30.8198C97.3451 30.8198 97.0816 30.874 96.8371 30.979C96.5977 31.0815 96.3816 31.2313 96.2021 31.4194C96.0247 31.6133 95.8858 31.8388 95.7924 32.084C95.6856 32.3426 95.6313 32.6198 95.6327 32.8995ZM97.1362 33.1523V34.2777H96.6609V31.4316H97.5868C97.7374 31.4291 97.8876 31.447 98.0333 31.4846C98.1557 31.5159 98.271 31.5699 98.3734 31.6436C98.4671 31.7123 98.5418 31.8035 98.5905 31.9087C98.6416 32.0271 98.6668 32.1549 98.6642 32.2838C98.6666 32.414 98.6294 32.5419 98.5577 32.6508C98.4741 32.7623 98.3644 32.8519 98.2382 32.9117C98.3084 32.9404 98.3734 32.9804 98.4307 33.03C98.4808 33.0749 98.5236 33.1271 98.5577 33.1849C98.5892 33.2469 98.6126 33.3127 98.6274 33.3806C98.6406 33.4533 98.6475 33.527 98.6478 33.6008V33.7843C98.6434 33.8631 98.6434 33.942 98.6478 34.0208C98.6546 34.085 98.6698 34.148 98.6929 34.2084V34.2614H98.2095C98.196 34.2258 98.1864 34.1889 98.1808 34.1513C98.1808 34.1064 98.1808 34.0616 98.1808 34.0167C98.1808 33.9719 98.1808 33.9229 98.1808 33.8822V33.6049C98.1909 33.4769 98.1513 33.3499 98.0702 33.2501C97.9632 33.1638 97.8264 33.1227 97.6892 33.136L97.1362 33.1523ZM97.1362 32.7242H97.6564C97.7256 32.7233 97.7945 32.7137 97.8613 32.6956C97.922 32.6781 97.98 32.652 98.0333 32.6181C98.0817 32.5863 98.1211 32.5428 98.148 32.4917C98.1805 32.4392 98.1962 32.378 98.1931 32.3164C98.1932 32.2368 98.1779 32.1579 98.148 32.084C98.1288 32.0285 98.0931 31.9802 98.0456 31.9454C97.9912 31.9062 97.9278 31.881 97.8613 31.872C97.7668 31.8541 97.6707 31.8459 97.5745 31.8475H97.1239L97.1362 32.7242Z" fill="#1F323F"/>
</svg>
